<svg width="41" height="40" viewBox="0 0 41 40" fill="none" xmlns="http://www.w3.org/2000/svg">
<g id="Frame">
<path id="Vector" d="M8 7.5C6.67392 7.5 5.40215 8.02678 4.46447 8.96447C3.52678 9.90215 3 11.1739 3 12.5V27.5C3 28.8261 3.52678 30.0979 4.46447 31.0355C5.40215 31.9732 6.67392 32.5 8 32.5H21.75C23.0761 32.5 24.3479 31.9732 25.2855 31.0355C26.2232 30.0979 26.75 28.8261 26.75 27.5V12.5C26.75 11.1739 26.2232 9.90215 25.2855 8.96447C24.3479 8.02678 23.0761 7.5 21.75 7.5H8ZM33.7333 31.25L29.25 26.7667V13.2333L33.7333 8.75C35.3067 7.175 38 8.29 38 10.5167V29.4833C38 31.71 35.3067 32.825 33.7333 31.25Z" fill="#202026" fill-opacity="0.32"/>
</g>
</svg>
