<svg width="40" height="40" viewBox="0 0 40 40" fill="none" xmlns="http://www.w3.org/2000/svg">
<g id="Frame">
<path id="Vector" d="M34.2035 4.00666C34.4201 3.94373 34.6497 3.94059 34.868 3.99756C35.0862 4.05454 35.285 4.1695 35.4432 4.33028C35.6014 4.49105 35.7132 4.69164 35.7666 4.91077C35.8201 5.12991 35.8133 5.35942 35.7469 5.57499L31.6935 18.75H17.5002C17.1687 18.75 16.8507 18.8817 16.6163 19.1161C16.3819 19.3505 16.2502 19.6685 16.2502 20C16.2502 20.3315 16.3819 20.6495 16.6163 20.8839C16.8507 21.1183 17.1687 21.25 17.5002 21.25H31.6935L35.7469 34.425C35.8129 34.6405 35.8194 34.8698 35.7658 35.0886C35.7121 35.3075 35.6003 35.5078 35.4422 35.6684C35.284 35.8289 35.0854 35.9437 34.8674 36.0006C34.6493 36.0575 34.42 36.0544 34.2035 35.9917C23.1786 32.7855 12.782 27.7205 3.46186 21.015C3.30081 20.8992 3.16962 20.7468 3.07912 20.5703C2.98863 20.3938 2.94143 20.1983 2.94143 20C2.94143 19.8017 2.98863 19.6062 3.07912 19.4297C3.16962 19.2532 3.30081 19.1008 3.46186 18.985C12.7818 12.2788 23.1784 7.21325 34.2035 4.00666Z" fill="#202026" fill-opacity="0.32"/>
</g>
</svg>
