<svg width="133" height="111" viewBox="0 0 133 111" fill="none" xmlns="http://www.w3.org/2000/svg">
<g id="Group" opacity="0.16">
<g id="Union">
<mask id="path-1-inside-1_2146_441" fill="white">
<path fill-rule="evenodd" clip-rule="evenodd" d="M8.64664 -11.1592L133 -79.5046C133 -45.8215 114.657 -14.8147 85.1518 1.37411L58.9078 15.8072L61.5859 17.3019L85.5427 30.488C114.833 46.601 132.976 77.3171 132.999 110.649L8.90697 43.4782L8.76505 43.3836L8.71188 43.4128C3.94663 40.8017 0.943848 35.7753 0.943848 30.3573V1.83105C0.943848 -3.58698 3.88138 -8.54806 8.64664 -11.1592Z"/>
</mask>
<path d="M133 -79.5046H134.21V-81.5505L132.417 -80.5651L133 -79.5046ZM8.64664 -11.1592L9.22811 -10.098L9.22947 -10.0987L8.64664 -11.1592ZM85.1518 1.37411L84.5697 0.313248L84.5687 0.31382L85.1518 1.37411ZM58.9078 15.8072L58.3247 14.7469L56.4109 15.7994L58.3181 16.8638L58.9078 15.8072ZM61.5859 17.3019L60.9962 18.3586L61.0024 18.362L61.5859 17.3019ZM85.5427 30.488L84.9593 31.548L84.9595 31.5482L85.5427 30.488ZM132.999 110.649L132.423 111.713L134.211 112.68L134.209 110.648L132.999 110.649ZM8.90697 43.4782L8.23573 44.485L8.28202 44.5158L8.33094 44.5423L8.90697 43.4782ZM8.76505 43.3836L9.43629 42.3767L8.82534 41.9694L8.18194 42.3233L8.76505 43.3836ZM8.71188 43.4128L8.13041 44.474L8.71294 44.7932L9.29499 44.4731L8.71188 43.4128ZM132.417 -80.5651L8.06381 -12.2196L9.22947 -10.0987L133.583 -78.4442L132.417 -80.5651ZM85.7339 2.43498C115.627 -13.9666 134.21 -45.3802 134.21 -79.5046H131.79C131.79 -46.2627 113.687 -15.6628 84.5697 0.313248L85.7339 2.43498ZM59.4909 16.8675L85.7349 2.43441L84.5687 0.31382L58.3247 14.7469L59.4909 16.8675ZM62.1757 16.2453L59.4976 14.7506L58.3181 16.8638L60.9962 18.3585L62.1757 16.2453ZM86.1262 29.4279L62.1694 16.2418L61.0024 18.362L84.9593 31.548L86.1262 29.4279ZM134.209 110.648C134.185 76.8753 115.803 45.7533 86.126 29.4277L84.9595 31.5482C113.864 47.4486 131.766 77.7588 131.789 110.65L134.209 110.648ZM8.33094 44.5423L132.423 111.713L133.575 109.584L9.48299 42.414L8.33094 44.5423ZM8.09382 44.3904L8.23573 44.485L9.5782 42.4713L9.43629 42.3767L8.09382 44.3904ZM9.29499 44.4731L9.34817 44.4438L8.18194 42.3233L8.12877 42.3525L9.29499 44.4731ZM-0.26621 30.3573C-0.26621 36.2219 2.9816 41.6527 8.13041 44.474L9.29335 42.3516C4.91165 39.9507 2.15391 35.3287 2.15391 30.3573H-0.26621ZM-0.26621 1.83105V30.3573H2.15391V1.83105H-0.26621ZM8.06516 -12.2203C2.91278 -9.39713 -0.26621 -4.02951 -0.26621 1.83105H2.15391C2.15391 -3.14444 4.84998 -7.69899 9.22811 -10.098L8.06516 -12.2203Z" fill="black" mask="url(#path-1-inside-1_2146_441)"/>
</g>
</g>
</svg>
