<svg width="38" height="32" viewBox="0 0 38 32" fill="none" xmlns="http://www.w3.org/2000/svg">
<g id="Union">
<mask id="path-1-inside-1_0_694" fill="white">
<path fill-rule="evenodd" clip-rule="evenodd" d="M22.3794 0.00012207L1.45252 11.5017C0.650594 11.9411 0.15625 12.7759 0.15625 13.6877V18.4883C0.15625 19.4 0.661573 20.2459 1.4635 20.6853L1.47269 20.6803L1.49633 20.696L22.3793 31.9998C22.3755 26.712 19.662 21.8153 15.2216 18.9999H35.531C36.6356 18.9999 37.531 18.1044 37.531 16.9999V14.9999C37.531 13.8953 36.6356 12.9999 35.531 12.9999H15.3463C19.7114 10.1505 22.3794 5.26994 22.3794 0.00012207Z"/>
</mask>
<path d="M1.45252 11.5017L1.93305 12.3786L1.93417 12.378L1.45252 11.5017ZM22.3794 0.00012207H23.3794V-1.69057L21.8977 -0.876239L22.3794 0.00012207ZM1.4635 20.6853L0.982961 21.5623L1.46435 21.8261L1.94534 21.5616L1.4635 20.6853ZM1.47269 20.6803L2.02739 19.8482L1.52253 19.5116L0.990841 19.804L1.47269 20.6803ZM1.49633 20.696L0.941627 21.5281L0.979876 21.5536L1.0203 21.5755L1.49633 20.696ZM22.3793 31.9998L21.9032 32.8793L23.3804 33.6789L23.3793 31.9991L22.3793 31.9998ZM15.2216 18.9999V17.9999H11.7769L14.6861 19.8444L15.2216 18.9999ZM15.3463 12.9999L14.7997 12.1625L11.985 13.9999H15.3463V12.9999ZM1.93417 12.378L22.861 0.876484L21.8977 -0.876239L0.970862 10.6253L1.93417 12.378ZM1.15625 13.6877C1.15625 13.1417 1.45105 12.6427 1.93305 12.3786L0.971982 10.6247C-0.149863 11.2394 -0.84375 12.4102 -0.84375 13.6877H1.15625ZM1.15625 18.4883V13.6877H-0.84375V18.4883H1.15625ZM1.94403 19.8083C1.45908 19.5426 1.15625 19.031 1.15625 18.4883H-0.84375C-0.84375 19.7691 -0.135928 20.9492 0.982961 21.5623L1.94403 19.8083ZM0.990841 19.804L0.981649 19.8091L1.94534 21.5616L1.95453 21.5565L0.990841 19.804ZM2.05104 19.864L2.02739 19.8482L0.917981 21.5123L0.941627 21.5281L2.05104 19.864ZM22.8553 31.1204L1.97236 19.8166L1.0203 21.5755L21.9032 32.8793L22.8553 31.1204ZM14.6861 19.8444C18.8386 22.4773 21.3757 27.0562 21.3793 32.0005L23.3793 31.9991C23.3753 26.3678 20.4855 21.1534 15.7571 18.1553L14.6861 19.8444ZM35.531 17.9999H15.2216V19.9999H35.531V17.9999ZM36.531 16.9999C36.531 17.5522 36.0833 17.9999 35.531 17.9999V19.9999C37.1879 19.9999 38.531 18.6567 38.531 16.9999H36.531ZM36.531 14.9999V16.9999H38.531V14.9999H36.531ZM35.531 13.9999C36.0833 13.9999 36.531 14.4476 36.531 14.9999H38.531C38.531 13.343 37.1879 11.9999 35.531 11.9999V13.9999ZM15.3463 13.9999H35.531V11.9999H15.3463V13.9999ZM21.3794 0.00012207C21.3794 4.93083 18.883 9.49701 14.7997 12.1625L15.8929 13.8373C20.5397 10.8039 23.3794 5.60905 23.3794 0.00012207H21.3794Z" fill="#202026" fill-opacity="0.16" mask="url(#path-1-inside-1_0_694)"/>
</g>
</svg>
