<svg width="41" height="40" viewBox="0 0 41 40" fill="none" xmlns="http://www.w3.org/2000/svg">
<g id="Frame">
<path id="Vector" fill-rule="evenodd" clip-rule="evenodd" d="M15.5 2.5H9.875C8.14833 2.5 6.75 3.9 6.75 5.625V34.375C6.75 36.1 8.15 37.5 9.875 37.5H31.125C32.85 37.5 34.25 36.1 34.25 34.375V21.25C34.25 19.5924 33.5915 18.0027 32.4194 16.8306C31.2473 15.6585 29.6576 15 28 15H24.875C24.0462 15 23.2513 14.6708 22.6653 14.0847C22.0792 13.4987 21.75 12.7038 21.75 11.875V8.75C21.75 7.0924 21.0915 5.50268 19.9194 4.33058C18.7473 3.15848 17.1576 2.5 15.5 2.5ZM26.5167 20.7267C26.6167 20.5934 26.689 20.4415 26.7295 20.2799C26.7699 20.1183 26.7777 19.9502 26.7523 19.7856C26.7268 19.6209 26.6687 19.463 26.5814 19.3212C26.4941 19.1793 26.3793 19.0563 26.2438 18.9594C26.1082 18.8625 25.9547 18.7937 25.7922 18.757C25.6297 18.7204 25.4615 18.7165 25.2975 18.7458C25.1335 18.775 24.9769 18.8368 24.8371 18.9274C24.6973 19.018 24.577 19.1356 24.4833 19.2733L19.09 26.8233L16.3833 24.1167C16.1464 23.8959 15.833 23.7757 15.5091 23.7814C15.1853 23.7871 14.8763 23.9183 14.6473 24.1473C14.4183 24.3763 14.2871 24.6853 14.2814 25.0091C14.2757 25.333 14.3959 25.6464 14.6167 25.8833L18.3667 29.6333C18.495 29.7616 18.6497 29.8603 18.82 29.9227C18.9903 29.9852 19.1722 30.0098 19.3529 29.9949C19.5337 29.98 19.7091 29.9259 19.8669 29.8364C20.0247 29.7469 20.1611 29.6242 20.2667 29.4767L26.5167 20.7267Z" fill="#202026" fill-opacity="0.32"/>
<path id="Vector_2" d="M22.1182 3.02667C23.4957 4.61495 24.2528 6.64758 24.2498 8.75001V11.875C24.2498 12.22 24.5298 12.5 24.8748 12.5H27.9998C30.1023 12.4971 32.1349 13.2541 33.7232 14.6317C32.9899 11.8429 31.529 9.29884 29.49 7.25982C27.451 5.2208 24.907 3.75995 22.1182 3.02667Z" fill="#202026" fill-opacity="0.32"/>
</g>
</svg>
