<svg width="330" height="384" viewBox="0 0 330 384" fill="none" xmlns="http://www.w3.org/2000/svg">
<path d="M87.1943 0.5C220.807 0.5 329.194 108.887 329.194 242.5C329.194 376.327 220.808 484.5 87.1943 484.5C79.2775 484.5 71.3613 484.132 63.6152 483.399C155.203 441.815 219.013 349.579 219.013 242.5C219.013 135.421 155.203 43.1839 63.6152 1.59961C71.3612 0.866872 79.2775 0.50001 87.1943 0.5Z" stroke="#202026" stroke-opacity="0.24"/>
<path d="M-45.4082 0.5C-23.2479 0.5 -1.69024 3.50977 18.6816 9.13965L20.6494 9.69238C121.983 38.5531 196.592 131.977 196.592 242.5C196.592 352.372 123.144 445.2 22.8115 474.624L20.4365 475.308H20.4346C-0.515127 481.293 -22.5337 484.5 -45.4082 484.5C-178.807 484.5 -287.408 376.113 -287.408 242.5C-287.408 108.887 -178.807 0.5 -45.4082 0.5Z" stroke="#202026" stroke-opacity="0.24"/>
</svg>
