<svg width="31" height="24" viewBox="0 0 31 24" fill="none" xmlns="http://www.w3.org/2000/svg">
<g id="Layer_1" clip-path="url(#clip0_0_634)">
<path id="Vector" d="M30.8489 12C30.8489 18.636 25.4743 24 18.8489 24C18.4249 24 18.0008 23.9788 17.5874 23.9364C22.1563 21.9011 25.3471 17.3216 25.3471 12C25.3471 6.67845 22.1563 2.09894 17.5874 0.0636042C18.0008 0.0212014 18.4249 0 18.8489 0C25.4743 0 30.8489 5.37456 30.8489 12Z" fill="#202026" fill-opacity="0.32"/>
<path id="Vector_2" d="M24.2871 12C24.2871 17.4912 20.5875 22.1237 15.5521 23.5442C14.5133 23.841 13.4214 24 12.2871 24C5.67227 24 0.287109 18.6254 0.287109 12C0.287109 5.37456 5.67227 0 12.2871 0C13.4214 0 14.5239 0.159011 15.5627 0.45583C20.5875 1.88693 24.2871 6.51943 24.2871 12Z" fill="#202026" fill-opacity="0.32"/>
</g>
<defs>
<clipPath id="clip0_0_634">
<rect width="30.5618" height="24" fill="white" transform="translate(0.287109)"/>
</clipPath>
</defs>
</svg>
