<svg width="348" height="485" viewBox="0 0 348 485" fill="none" xmlns="http://www.w3.org/2000/svg">
<path d="M242.5 0.5C108.887 0.5 0.500488 108.887 0.500488 242.5C0.500488 376.327 108.887 484.5 242.5 484.5C250.417 484.5 258.334 484.132 266.08 483.399C174.492 441.815 110.682 349.579 110.682 242.5C110.682 135.421 174.491 43.1839 266.08 1.59961C258.334 0.866872 250.417 0.50001 242.5 0.5Z" stroke="#202026" stroke-opacity="0.24"/>
<path d="M375.103 0.5C352.942 0.5 331.385 3.50977 311.013 9.13965L309.045 9.69238C207.712 38.5531 133.103 131.977 133.103 242.5C133.103 352.372 206.55 445.2 306.883 474.624L309.258 475.308H309.26C330.209 481.293 352.228 484.5 375.103 484.5C508.502 484.5 617.103 376.113 617.103 242.5C617.103 108.887 508.502 0.5 375.103 0.5Z" stroke="#202026" stroke-opacity="0.24"/>
</svg>
