<svg width="565" height="123" viewBox="0 0 565 123" fill="none" xmlns="http://www.w3.org/2000/svg">
<path d="M281.07 38.5802H286.11V45.3602H280.4C277.64 45.3602 275.38 44.6302 273.62 43.1802C271.83 44.6402 269.55 45.3602 266.79 45.3602H246.8C243.63 45.3602 241.14 44.3002 239.35 42.1702C237.74 40.3002 236.94 37.9002 236.94 34.9502V29.2402L243.94 25.5402V34.5002C243.94 35.9902 244.24 37.0602 244.84 37.6902C245.47 38.2902 246.5 38.5902 247.92 38.5902H266.18C267.6 38.5902 268.61 38.2702 269.2 37.6402C269.8 37.0102 270.1 35.9602 270.1 34.5002V12.9302L277.1 9.23022V34.5402C277.1 36.0002 277.4 37.0402 278 37.6802C278.63 38.2802 279.66 38.5802 281.08 38.5802H281.07Z" fill="white"/>
<path d="M258.5 17.3501C261.19 17.8001 262.53 19.3801 262.53 22.1101C262.53 25.1701 261.06 26.7001 258.11 26.7001H249.82L251.56 23.4501H257.78C258.79 23.4501 259.29 22.9501 259.29 21.9401C259.29 20.6701 258.45 20.0401 256.77 20.0401C255.65 20.0401 254.6 20.3401 253.63 20.9401V18.1401L258.45 12.8201H262.54L258.51 17.3601L258.5 17.3501Z" fill="white"/>
<path d="M313.01 38.5802H317.43V45.3602H312.28C309.56 45.3602 307.32 44.6302 305.56 43.1802C303.77 44.6402 301.51 45.3602 298.78 45.3602H282.76V38.5802H298.05C300.66 38.5802 301.97 37.2902 301.97 34.7202V34.3802C301.97 32.3302 301.2 30.6802 299.67 29.4502C298.14 28.1802 296.12 27.5502 293.62 27.5502C291.72 27.5502 289.72 27.9202 287.63 28.6702V21.8902L299 9.23022H306.11L295.92 20.6502C298.87 20.9502 301.37 21.8302 303.42 23.2802C307.15 25.8202 309.02 29.5002 309.02 34.3102V34.5302C309.02 35.9902 309.32 37.0302 309.92 37.6702C310.55 38.2702 311.58 38.5702 313 38.5702L313.01 38.5802Z" fill="white"/>
<path d="M314.061 45.3502V38.5702H319.101C320.521 38.5702 321.531 38.2702 322.121 37.6702C322.721 37.0402 323.021 35.9902 323.021 34.5302V24.1702L330.081 20.4702V34.8602C330.081 38.2602 329.031 40.9102 326.941 42.8102C325.111 44.4902 322.721 45.3302 319.771 45.3302H314.061V45.3502Z" fill="white"/>
<path d="M317.08 57.8402C315.96 57.8402 315.06 57.5002 314.39 56.8302C313.72 56.1602 313.38 55.2402 313.38 54.0902C313.38 51.6602 314.61 50.4502 317.08 50.4502C318.2 50.4502 319.08 50.7702 319.71 51.4002C320.38 52.0702 320.72 52.9702 320.72 54.0902C320.72 56.5902 319.51 57.8402 317.08 57.8402Z" fill="white"/>
<path d="M325.701 57.8402C324.581 57.8402 323.68 57.5002 323.01 56.8302C322.34 56.1602 322 55.2402 322 54.0902C322 51.6602 323.231 50.4502 325.701 50.4502C326.821 50.4502 327.7 50.7702 328.33 51.4002C329 52.0702 329.34 52.9702 329.34 54.0902C329.34 56.5902 328.131 57.8402 325.701 57.8402Z" fill="white"/>
<path d="M357.861 38.58H512.901V45.36H357.191C355.921 45.36 354.741 45.19 353.661 44.86C353.181 48.44 351.741 51.28 349.351 53.37C347.181 55.24 344.591 56.17 341.571 56.17C339.221 56.17 336.921 55.57 334.681 54.38V48.22C336.621 49.3 338.531 49.84 340.391 49.84C342.441 49.84 344.031 49.17 345.151 47.82C346.311 46.51 346.891 44.68 346.891 42.33V24.19L351.481 21.78L353.891 20.49V20.55L353.951 20.49V34.55C353.951 36.01 354.251 37.05 354.851 37.69C355.451 38.29 356.461 38.59 357.871 38.59L357.861 38.58Z" fill="white"/>
<path d="M541.36 7.33011C539.12 7.33011 538 6.19011 538 3.91011C538 1.63011 539.12 0.610107 541.36 0.610107C543.6 0.610107 544.66 1.71011 544.66 3.91011C544.66 6.11011 543.56 7.33011 541.36 7.33011Z" fill="white"/>
<path d="M537.11 15.5602C535.99 15.5602 535.09 15.2202 534.42 14.5502C533.75 13.8802 533.41 12.9602 533.41 11.8102C533.41 10.7302 533.75 9.85017 534.42 9.18017C535.09 8.51017 535.99 8.17017 537.11 8.17017C538.23 8.17017 539.11 8.51017 539.74 9.18017C540.41 9.81017 540.75 10.6902 540.75 11.8102C540.75 14.3102 539.54 15.5602 537.11 15.5602Z" fill="white"/>
<path d="M545.73 15.5602C544.61 15.5602 543.71 15.2202 543.04 14.5502C542.37 13.8802 542.03 12.9602 542.03 11.8102C542.03 10.7302 542.37 9.85017 543.04 9.18017C543.71 8.51017 544.61 8.17017 545.73 8.17017C546.85 8.17017 547.73 8.51017 548.36 9.18017C549.03 9.81017 549.37 10.6902 549.37 11.8102C549.37 14.3102 548.16 15.5602 545.73 15.5602Z" fill="white"/>
<path d="M359.561 45.3502V38.5702H515.501C516.921 38.5702 517.931 38.2702 518.521 37.6702C519.151 37.0402 519.471 35.9902 519.471 34.5302V27.1402L526.531 23.4402V34.5302C526.531 35.9902 526.831 37.0302 527.431 37.6702C528.031 38.2702 529.031 38.5702 530.451 38.5702H534.261C535.681 38.5702 536.691 38.2702 537.281 37.6702C537.881 37.0402 538.181 35.9902 538.181 34.5302V25.6802L545.241 21.9302V34.5302C545.241 35.9902 545.541 37.0302 546.141 37.6702C546.771 38.2702 547.801 38.5702 549.221 38.5702H553.031C554.451 38.5702 555.461 38.2702 556.051 37.6702C556.651 37.0402 556.951 35.9902 556.951 34.5302V24.1702L564.011 20.4702V34.8602C564.011 38.1802 563.001 40.8002 560.991 42.7002C559.241 44.3802 556.921 45.2602 554.051 45.3302H548.511C545.751 45.3302 543.491 44.5102 541.731 42.8702C540.121 44.4802 538.001 45.3002 535.351 45.3302H529.811C527.051 45.3302 524.791 44.5102 523.031 42.8702C521.271 44.5102 519.021 45.3302 516.251 45.3302H359.591L359.561 45.3502Z" fill="white"/>
<path d="M218.99 43.4951H-0.00976562V45.4951H218.99V43.4951Z" fill="#C0ECF5"/>
<path d="M34.9103 111.75C34.4603 115.18 32.5203 117.87 29.0903 119.81C25.9903 121.53 22.1303 122.39 17.5003 122.39C11.3003 122.39 6.64027 120.62 3.50027 117.07C1.19027 114.42 0.0302734 111.17 0.0302734 107.33C0.0302734 104.38 0.720273 101.8 2.10027 99.6002L8.82027 98.2002C7.33027 100.74 6.58027 103.41 6.58027 106.21C6.58027 109.35 7.51027 111.75 9.38027 113.43C11.2503 115.15 13.9503 116.01 17.5003 116.01C23.0303 116.01 26.3903 114.59 27.5803 111.75H22.2003L25.7303 104.97H35.0803V111.75H34.9103Z" fill="white"/>
<path d="M43.1902 81.2301C42.0702 81.2301 41.1702 80.8901 40.5002 80.2201C39.8302 79.5501 39.4902 78.6301 39.4902 77.4801C39.4902 76.4001 39.8302 75.5201 40.5002 74.8501C41.1702 74.1801 42.0702 73.8401 43.1902 73.8401C44.3102 73.8401 45.1902 74.1801 45.8202 74.8501C46.4902 75.4801 46.8302 76.3601 46.8302 77.4801C46.8302 79.9801 45.6202 81.2301 43.1902 81.2301Z" fill="white"/>
<path d="M52.1505 104.97H57.1904V111.75H51.4804C48.7505 111.75 46.5005 111.02 44.7005 109.57C42.9105 111.03 40.6505 111.75 37.9205 111.75H32.2104V104.97H37.2505C38.6705 104.97 39.6805 104.67 40.2705 104.07C40.8705 103.44 41.1705 102.39 41.1705 100.93V90.5701L48.2304 86.8701V100.93C48.2304 102.39 48.5305 103.43 49.1305 104.07C49.7305 104.67 50.7405 104.97 52.1505 104.97Z" fill="white"/>
<path d="M67.3104 81.9601C66.1904 81.9601 65.2903 81.6201 64.6203 80.9501C63.9503 80.2801 63.6104 79.3601 63.6104 78.2101C63.6104 75.7801 64.8404 74.5701 67.3104 74.5701C68.4304 74.5701 69.3103 74.9101 69.9403 75.5801C70.6103 76.2101 70.9504 77.0901 70.9504 78.2101C70.9504 80.7101 69.7404 81.9601 67.3104 81.9601Z" fill="white"/>
<path d="M75.9305 81.9601C74.8105 81.9601 73.9105 81.6201 73.2405 80.9501C72.5705 80.2801 72.2305 79.3601 72.2305 78.2101C72.2305 75.7801 73.4605 74.5701 75.9305 74.5701C77.0505 74.5701 77.9305 74.9101 78.5605 75.5801C79.2305 76.2101 79.5705 77.0901 79.5705 78.2101C79.5705 80.7101 78.3605 81.9601 75.9305 81.9601Z" fill="white"/>
<path d="M80.5201 104.98C81.9401 102.7 82.6501 100.38 82.6501 98.0302C82.6501 94.7802 81.8101 92.0802 80.1301 89.9102C78.1101 87.2602 75.2801 85.9402 71.6201 85.9402C68.4101 85.9402 65.8101 86.9602 63.8301 89.0202C61.6301 91.2902 60.5301 94.3002 60.5301 98.0302C60.5301 100.38 61.2401 102.7 62.6601 104.98H53.8101V111.75H67.1401C68.9701 111.75 70.4601 111.62 71.6201 111.36C72.7001 111.62 74.1901 111.75 76.1001 111.75H169.37V104.98H80.5201ZM74.6401 101.62C73.8601 102.85 72.8301 103.76 71.5601 104.36C70.3301 103.8 69.3201 102.9 68.5401 101.67C67.7501 100.4 67.3601 99.0402 67.3601 97.5802C67.3601 94.1902 68.7801 92.4902 71.6201 92.4902C72.9201 92.4902 73.9501 92.9502 74.7001 93.8902C75.4801 94.7802 75.8701 96.0302 75.8701 97.6402C75.8701 99.0202 75.4601 100.35 74.6401 101.62Z" fill="white"/>
<path d="M171.34 81.9601C170.22 81.9601 169.32 81.6201 168.65 80.9501C167.98 80.2801 167.64 79.3601 167.64 78.2101C167.64 77.1301 167.98 76.2501 168.65 75.5801C169.32 74.9101 170.22 74.5701 171.34 74.5701C172.46 74.5701 173.34 74.9101 173.97 75.5801C174.64 76.2101 174.98 77.0901 174.98 78.2101C174.98 80.7101 173.77 81.9601 171.34 81.9601Z" fill="white"/>
<path d="M179.91 81.9601C178.79 81.9601 177.89 81.6201 177.22 80.9501C176.55 80.2401 176.21 79.3301 176.21 78.2101C176.21 77.0901 176.55 76.2501 177.22 75.5801C177.93 74.9101 178.83 74.5701 179.91 74.5701C180.99 74.5701 181.91 74.9101 182.54 75.5801C183.21 76.2101 183.55 77.0901 183.55 78.2101C183.55 80.7101 182.34 81.9601 179.91 81.9601Z" fill="white"/>
<path d="M185.961 104.97H191.001V111.75H185.291C182.571 111.75 180.311 111.02 178.511 109.57C176.721 111.03 174.461 111.75 171.731 111.75H166.021V104.97H171.061C172.481 104.97 173.491 104.67 174.081 104.07C174.681 103.44 174.981 102.39 174.981 100.93V90.5701L182.041 86.8701V100.93C182.041 102.39 182.341 103.43 182.941 104.07C183.541 104.67 184.551 104.97 185.961 104.97Z" fill="white"/>
<path d="M187.62 111.75V104.97H191.15C192.87 104.97 194.08 104.6 194.79 103.85C195.54 103.1 195.91 101.83 195.91 100.04V79.3801L202.91 75.6301V100.1C202.91 103.72 201.81 106.61 199.61 108.78C197.59 110.76 194.91 111.75 191.55 111.75H187.63H187.62Z" fill="white"/>
<path d="M212.99 111.75V79.3801L220.05 75.6301V111.75H212.99Z" fill="white"/>
<path d="M564.01 109.505H237.01V111.505H564.01V109.505Z" fill="#C0ECF5"/>
</svg>
