<svg width="121" height="24" viewBox="0 0 121 24" fill="none" xmlns="http://www.w3.org/2000/svg">
<g id="Group">
<g id="Group_2">
<path id="Vector" d="M0.461426 24V19.9238C0.461426 18.7271 0.809567 17.8059 1.4986 17.1749C2.15136 16.5657 3.06523 16.2683 4.24746 16.2683C3.34085 15.4415 2.88391 14.1867 2.88391 12.4968C2.88391 10.9519 3.27557 9.76242 4.05163 8.92108C4.74792 8.16678 5.66179 7.79688 6.8005 7.79688C7.93921 7.79688 8.73704 8.12326 9.35354 8.76877C9.9918 9.42154 10.3037 10.3064 10.3037 11.4306V13.5122C10.3037 14.6219 9.9918 15.5068 9.3753 16.1523C8.75154 16.805 7.90295 17.1387 6.82226 17.1677H4.16043C2.36895 17.1677 1.47684 18.0888 1.47684 19.9383V22.2955C1.47684 23.0136 1.08518 23.6663 0.461426 24ZM9.30277 11.6119C9.30277 9.67539 8.46868 8.71075 6.80775 8.71075C5.90114 8.71075 5.18309 9.05163 4.66088 9.72616C4.15318 10.3934 3.89932 11.3146 3.89932 12.4968C3.89932 13.679 4.16043 14.6582 4.68264 15.3327C5.16134 15.9564 5.79959 16.2611 6.61192 16.2611C8.4034 16.2611 9.29552 15.3399 9.29552 13.4904V11.6047L9.30277 11.6119Z" fill="white"/>
<path id="Vector_2" d="M25.455 16.2683H26.3834V17.1749H25.3027C23.8739 17.1749 22.8585 16.6454 22.271 15.5938C21.6617 16.6454 20.6463 17.1749 19.2175 17.1749H12.4795C12.7696 16.6164 13.3498 16.2683 13.9809 16.2683H16.3961V7.71707C16.3961 7.00628 16.7877 6.35352 17.4115 6.01988V16.2683H19.0579C20.8494 16.2683 21.7415 15.3472 21.7415 13.4977V4.89568C21.7415 4.18489 22.1332 3.53212 22.7569 3.19849V13.4904C22.7569 15.3399 23.649 16.261 25.4405 16.261L25.455 16.2683Z" fill="white"/>
<path id="Vector_3" d="M25.085 17.1749V16.2682H27.8121C31.1339 16.2682 33.7305 15.1005 35.609 12.7578C34.2527 10.0597 32.5555 8.70342 30.5174 8.70342C29.2917 8.70342 28.1167 9.32718 27.007 10.5674C27.007 9.79136 27.4059 9.06607 28.0514 8.63089C28.8928 8.07242 29.7486 7.78955 30.6262 7.78955C32.8529 7.78955 34.7894 9.30542 36.4358 12.3371V13.164C34.3542 15.8331 31.4748 17.1749 27.7903 17.1749H25.085Z" fill="white"/>
<path id="Vector_4" d="M47.2282 4.89568C47.2282 4.18489 47.6198 3.53212 48.2436 3.19849V13.5122C48.2436 14.6799 47.9027 15.601 47.2282 16.261C46.5899 16.8703 45.7486 17.1677 44.6896 17.1677H37.9517C38.2418 16.6092 38.822 16.261 39.453 16.261H41.8683V7.70982C41.8683 6.99903 42.2599 6.34627 42.8837 6.01263V16.261H44.5301C46.3216 16.261 47.2137 15.3399 47.2137 13.4904V4.89568H47.2282Z" fill="white"/>
<path id="Vector_5" d="M52.146 17.1749V4.89568C52.146 4.18489 52.5377 3.53212 53.1614 3.19849V17.1749H52.146Z" fill="white"/>
</g>
<g id="Group_3">
<g id="Group_4">
<path id="Vector_6" d="M77.8867 17.3345C78.01 17.349 78.1333 17.3562 78.2639 17.3562H78.3727C78.2058 17.3562 78.0463 17.3562 77.8867 17.3345Z" fill="white"/>
<path id="Vector_7" d="M87.0111 8.92107V13.3236C87.0111 14.5929 86.6194 15.6155 85.8506 16.3553C85.1326 17.0226 84.1969 17.3562 83.0582 17.3562H78.3728C78.206 17.3562 78.0464 17.3562 77.8869 17.3345C77.2341 17.3055 76.5959 17.1604 75.9431 16.9211C75.1815 17.2112 74.391 17.3562 73.6076 17.3562H72.5922C72.4036 18.611 71.6784 19.6264 70.4454 20.3807C69.2704 21.106 67.7473 21.4759 65.934 21.4759C63.6058 21.4759 61.8289 20.7869 60.6394 19.4161C59.7618 18.4152 59.3193 17.1532 59.3193 15.6591V15.6228C59.3193 13.8676 60.5306 12.3517 62.235 11.9601L62.5904 11.8803L62.3583 12.2429C61.7346 13.2438 61.4154 14.3245 61.4154 15.4632C61.4154 16.6962 61.8143 17.6681 62.6049 18.3572C63.3882 19.0679 64.5124 19.4233 65.934 19.4233C67.1453 19.4233 68.1462 19.213 68.9222 18.7923C69.6113 18.4224 70.0392 17.951 70.2423 17.3562H68.0229C68.6974 16.058 70.0392 15.2384 71.5043 15.2384H74.4055C73.789 14.3245 73.4843 13.1858 73.6294 11.9746C73.8687 9.97275 75.4064 8.29732 77.3864 7.8984C77.4082 7.8984 77.4299 7.89115 77.4444 7.8839C79.1054 7.57202 80.6212 8.91382 80.6212 10.6038V11.0172H80.5342C79.9467 10.2121 78.924 9.74065 77.7998 9.97275C76.8207 10.1758 76.0156 10.9591 75.7835 11.931C75.3774 13.6863 76.6901 15.2384 78.3728 15.2384H82.8842C84.1607 15.2239 84.7844 14.5784 84.7844 13.2583V12.6346C84.7844 11.0824 85.6403 9.65362 87.0111 8.92107Z" fill="white"/>
</g>
<path id="Vector_8" d="M118.866 9.08794C117.85 7.90571 116.48 7.31097 114.79 7.31097C112.759 7.31097 110.967 8.13781 109.459 9.77697C108.146 11.2058 107.189 13.0045 106.594 15.1369C105.861 14.9193 105.499 14.3028 105.499 13.2584V8.92113C104.128 9.65367 103.272 11.0825 103.272 12.6346V13.2584C103.272 14.6074 102.656 15.2384 101.328 15.2384H93.981C92.6755 15.2384 92.0372 14.5929 92.0372 13.2584V0C90.6664 0.732548 89.8105 2.16138 89.8105 3.71351V13.3237C89.8105 14.4261 90.1152 15.3545 90.7244 16.0798C91.4352 16.9284 92.4579 17.3563 93.7634 17.3563H101.546C102.714 17.3563 103.671 17.0009 104.389 16.2901C105.1 17.0009 106.05 17.3563 107.225 17.3563H116.197C117.321 17.3563 118.242 17.0372 118.938 16.4062C119.736 15.6809 120.142 14.651 120.142 13.3454V12.7797C120.142 11.3146 119.714 10.0743 118.866 9.08794ZM116.088 15.2384H108.748C109.241 13.7443 109.93 12.4751 110.808 11.4669C111.99 10.1034 113.339 9.40707 114.811 9.40707C115.653 9.40707 116.371 9.68268 116.937 10.2194C117.589 10.8504 117.923 11.7063 117.923 12.7797V13.1714C117.923 14.5639 117.321 15.2384 116.088 15.2384Z" fill="white"/>
<path id="Vector_9" d="M87.0108 5.92559C87.0108 5.13246 86.3679 4.4895 85.5748 4.4895C84.7816 4.4895 84.1387 5.13246 84.1387 5.92559C84.1387 6.71871 84.7816 7.36167 85.5748 7.36167C86.3679 7.36167 87.0108 6.71871 87.0108 5.92559Z" fill="white"/>
</g>
</g>
</svg>
