<svg width="18" height="18" viewBox="0 0 18 18" fill="none" xmlns="http://www.w3.org/2000/svg">
<g id="Icon" clip-path="url(#clip0_0_821)">
<path id="Vector" d="M9 16.86C7.56 16.86 6.24 16.51 5.04 15.81C3.84 15.11 2.89 14.16 2.19 12.96C1.49 11.76 1.14 10.44 1.14 9C1.14 7.56 1.49 6.24 2.19 5.04C2.89 3.84 3.84 2.89 5.04 2.19C6.24 1.49 7.56 1.14 9 1.14C10.44 1.14 11.76 1.49 12.96 2.19C14.16 2.89 15.11 3.84 15.81 5.04C16.51 6.24 16.86 7.56 16.86 9C16.86 10.44 16.51 11.76 15.81 12.96C15.11 14.16 14.16 15.11 12.96 15.81C11.76 16.51 10.44 16.86 9 16.86ZM9 18C10.64 18 12.15 17.6 13.53 16.8C14.91 16 16 14.91 16.8 13.53C17.6 12.15 18 10.64 18 9C18 7.36 17.6 5.85 16.8 4.47C16 3.09 14.91 2 13.53 1.2C12.15 0.4 10.64 0 9 0C7.36 0 5.85 0.4 4.47 1.2C3.09 2 2 3.09 1.2 4.47C0.4 5.85 0 7.36 0 9C0 10.64 0.4 12.15 1.2 13.53C2 14.91 3.09 16 4.47 16.8C5.85 17.6 7.36 18 9 18ZM12.36 5.58C12.32 5.58 12.3 5.6 12.3 5.64L8.4 10.62L6.06 8.22C5.9 8.06 5.7 7.99 5.46 8.01C5.22 8.03 5.02 8.12 4.86 8.28C4.7 8.44 4.62 8.63 4.62 8.85C4.62 9.07 4.7 9.26 4.86 9.42L7.86 12.42C8.02 12.58 8.22 12.66 8.46 12.66C8.7 12.66 8.9 12.56 9.06 12.36L13.56 6.78C13.72 6.62 13.8 6.42 13.8 6.18C13.8 5.94 13.71 5.74 13.53 5.58C13.35 5.42 13.15 5.34 12.93 5.34C12.71 5.34 12.52 5.42 12.36 5.58Z" fill="#5CC8F2"/>
</g>
<defs>
<clipPath id="clip0_0_821">
<rect width="18" height="18" fill="white" transform="matrix(1 0 0 -1 0 18)"/>
</clipPath>
</defs>
</svg>
