<svg width="35" height="22" viewBox="0 0 35 22" fill="none" xmlns="http://www.w3.org/2000/svg">
<g id="Group">
<g id="Group_2">
<path id="Vector" d="M15.1122 0.769775L1.29531 8.36361C0.765841 8.65373 0.439453 9.20495 0.439453 9.80695V12.9765C0.439453 13.5785 0.77309 14.137 1.30256 14.4271L9.79576 9.75618C13.0741 7.95744 15.1122 4.5123 15.1122 0.769775Z" fill="#049DD9"/>
<path id="Vector_2" d="M15.1123 21.9048C15.1123 18.1986 13.096 14.7825 9.83946 12.991L7.17763 11.5259L6.86574 11.3518L1.30273 14.4198L1.32449 14.4343L15.1123 21.8976V21.9048Z" fill="white"/>
</g>
<g id="Group_3">
<path id="Vector_3" d="M20.3271 21.8975L34.144 14.3037C34.6735 14.0136 34.9999 13.4624 34.9999 12.8604V9.69082C34.9999 9.08883 34.6662 8.53035 34.1368 8.24023L25.6436 12.9111C22.3652 14.7099 20.3271 18.155 20.3271 21.8975Z" fill="#049DD9"/>
<path id="Vector_4" d="M20.3271 0.762451C20.3271 4.46871 22.3507 7.88484 25.6 9.67632L28.2619 11.1414L28.5738 11.3155L34.1368 8.24749L34.115 8.23299L20.3271 0.769704V0.762451Z" fill="white"/>
</g>
<g id="Group_4">
<path id="Vector_5" d="M17.7231 13.7452C19.5653 13.7452 21.0522 12.2511 21.0522 10.4089C21.0522 8.56662 19.5581 7.07251 17.7231 7.07251C15.8881 7.07251 14.3867 8.56662 14.3867 10.4089C14.3867 12.2511 15.8808 13.7452 17.7231 13.7452Z" fill="white"/>
<path id="Vector_6" d="M17.7232 15.7544C19.667 15.7544 21.2337 14.1805 21.2337 12.2367C21.2337 10.293 19.6598 8.72632 17.7232 8.72632C15.7867 8.72632 14.2056 10.3002 14.2056 12.2367C14.2056 14.1733 15.7795 15.7544 17.7232 15.7544Z" fill="#049DD9"/>
</g>
</g>
</svg>
