<svg width="618" height="403" viewBox="0 0 618 403" fill="none" xmlns="http://www.w3.org/2000/svg">
<g opacity="0.16">
<path d="M375.103 -39.5C508.163 -39.5 616.103 68.4393 616.103 201.5C616.103 334.774 508.164 442.5 375.103 442.5C368.486 442.5 361.871 442.241 355.356 441.728C445.453 399.262 507.921 307.649 507.921 201.5C507.921 95.3509 445.453 3.73662 355.356 -38.7285C361.871 -39.2422 368.486 -39.5 375.103 -39.5Z" stroke="#C0ECF5" stroke-width="3"/>
<path d="M242.5 -39.5C264.57 -39.5 286.038 -36.5025 306.323 -30.8965L308.282 -30.3457H308.284C409.201 -1.60343 483.5 91.4378 483.5 201.5C483.5 310.916 410.357 403.361 310.438 432.664L308.073 433.345L308.068 433.346C287.207 439.306 265.28 442.5 242.5 442.5C109.653 442.5 1.5 334.56 1.5 201.5C1.5 68.4402 109.653 -39.5 242.5 -39.5Z" stroke="#C0ECF5" stroke-width="3"/>
</g>
</svg>
