<svg width="211" height="303" viewBox="0 0 211 303" fill="none" xmlns="http://www.w3.org/2000/svg">
<mask id="path-1-inside-1_0_729" fill="white">
<path fill-rule="evenodd" clip-rule="evenodd" d="M12.2517 108.707L210.042 0C210.042 53.5748 180.867 102.893 133.937 128.642L92.1946 151.598L96.4543 153.976L134.559 174.949C181.147 200.577 210.003 249.433 210.041 302.449L12.6658 195.61L12.44 195.46L12.3554 195.506C4.77607 191.353 0 183.359 0 174.741V129.369C0 120.751 4.6723 112.86 12.2517 108.707Z"/>
</mask>
<path d="M210.042 0H213.042V-5.07206L208.597 -2.62908L210.042 0ZM12.2517 108.707L13.6933 111.338L13.6966 111.336L12.2517 108.707ZM133.937 128.642L132.494 126.012L132.491 126.013L133.937 128.642ZM92.1946 151.598L90.7489 148.97L86.0043 151.579L90.7325 154.218L92.1946 151.598ZM96.4543 153.976L94.9922 156.595L95 156.6L95.0077 156.604L96.4543 153.976ZM134.559 174.949L133.112 177.577L133.113 177.577L134.559 174.949ZM210.041 302.449L208.613 305.087L213.045 307.486L213.041 302.446L210.041 302.449ZM12.6658 195.61L11.0016 198.107L11.1164 198.183L11.2377 198.249L12.6658 195.61ZM12.44 195.46L14.1042 192.964L12.5894 191.954L10.9942 192.831L12.44 195.46ZM12.3554 195.506L10.9138 198.137L12.3582 198.929L13.8012 198.135L12.3554 195.506ZM208.597 -2.62908L10.8067 106.078L13.6966 111.336L211.487 2.62908L208.597 -2.62908ZM135.38 131.272C183.271 104.995 213.042 54.6687 213.042 0H207.042C207.042 52.4809 178.463 100.79 132.494 126.012L135.38 131.272ZM93.6403 154.227L135.383 131.27L132.491 126.013L90.7489 148.97L93.6403 154.227ZM97.9164 151.356L93.6567 148.979L90.7325 154.218L94.9922 156.595L97.9164 151.356ZM136.005 172.321L97.9009 151.348L95.0077 156.604L133.112 177.577L136.005 172.321ZM213.041 302.446C213.003 248.338 183.551 198.476 136.005 172.32L133.113 177.577C178.743 202.679 207.004 250.528 207.041 302.451L213.041 302.446ZM11.2377 198.249L208.613 305.087L211.469 299.81L14.0939 192.972L11.2377 198.249ZM10.7758 197.956L11.0016 198.107L14.33 193.114L14.1042 192.964L10.7758 197.956ZM13.8012 198.135L13.8858 198.089L10.9942 192.831L10.9097 192.878L13.8012 198.135ZM-3 174.741C-3 184.466 2.38357 193.463 10.9138 198.137L13.7971 192.876C7.16858 189.243 3 182.251 3 174.741H-3ZM-3 129.369V174.741H3V129.369H-3ZM10.8101 106.076C2.27093 110.755 -3 119.654 -3 129.369H3C3 121.848 7.07367 114.965 13.6933 111.338L10.8101 106.076Z" fill="#C0ECF5" mask="url(#path-1-inside-1_0_729)"/>
</svg>
