<svg width="211" height="303" viewBox="0 0 211 303" fill="none" xmlns="http://www.w3.org/2000/svg">
<mask id="path-1-inside-1_0_725" fill="white">
<path fill-rule="evenodd" clip-rule="evenodd" d="M198.748 108.707L0.957825 -0.00012207C0.957825 53.5747 30.1331 102.893 77.063 128.642L118.805 151.598L114.546 153.976L76.4412 174.949C29.8532 200.577 0.996597 249.433 0.958969 302.448L198.334 195.61L198.56 195.46L198.645 195.506C206.224 191.353 211 183.359 211 174.741V129.368C211 120.751 206.328 112.86 198.748 108.707Z"/>
</mask>
<path d="M0.957825 -0.00012207H-2.04218V-5.07219L2.40279 -2.62921L0.957825 -0.00012207ZM198.748 108.707L197.307 111.338L197.303 111.336L198.748 108.707ZM77.063 128.642L78.506 126.012L78.5086 126.013L77.063 128.642ZM118.805 151.598L120.251 148.969L124.996 151.579L120.267 154.218L118.805 151.598ZM114.546 153.976L116.008 156.595L116 156.6L115.992 156.604L114.546 153.976ZM76.4412 174.949L77.8877 177.577L77.8871 177.577L76.4412 174.949ZM0.958969 302.448L2.38705 305.087L-2.0446 307.486L-2.04103 302.446L0.958969 302.448ZM198.334 195.61L199.998 198.106L199.884 198.183L199.762 198.249L198.334 195.61ZM198.56 195.46L196.896 192.964L198.411 191.954L200.006 192.831L198.56 195.46ZM198.645 195.506L200.086 198.137L198.642 198.929L197.199 198.135L198.645 195.506ZM2.40279 -2.62921L200.193 106.078L197.303 111.336L-0.487137 2.62896L2.40279 -2.62921ZM75.6199 131.272C27.7288 104.995 -2.04218 54.6686 -2.04218 -0.00012207H3.95782C3.95782 52.4807 32.5374 100.79 78.506 126.012L75.6199 131.272ZM117.36 154.227L75.6173 131.27L78.5086 126.013L120.251 148.969L117.36 154.227ZM113.084 151.356L117.343 148.979L120.267 154.218L116.008 156.595L113.084 151.356ZM74.9946 172.321L113.099 151.347L115.992 156.604L77.8877 177.577L74.9946 172.321ZM-2.04103 302.446C-2.00262 248.338 27.4492 198.476 74.9952 172.32L77.8871 177.577C32.2572 202.679 3.99582 250.528 3.95897 302.451L-2.04103 302.446ZM199.762 198.249L2.38705 305.087L-0.469116 299.81L196.906 192.972L199.762 198.249ZM200.224 197.956L199.998 198.106L196.67 193.114L196.896 192.964L200.224 197.956ZM197.199 198.135L197.114 198.088L200.006 192.831L200.09 192.878L197.199 198.135ZM214 174.741C214 184.466 208.616 193.463 200.086 198.137L197.203 192.875C203.831 189.243 208 182.251 208 174.741H214ZM214 129.368V174.741H208V129.368H214ZM200.19 106.076C208.729 110.755 214 119.654 214 129.368H208C208 121.848 203.926 114.965 197.307 111.338L200.19 106.076Z" fill="#C0ECF5" mask="url(#path-1-inside-1_0_725)"/>
</svg>
