<svg width="73" height="72" viewBox="0 0 73 72" fill="none" xmlns="http://www.w3.org/2000/svg">
<g id="icons8_design 1">
<path id="Vector" d="M24.6667 6L6.66675 24L17.9578 35.291L22.2 31.043L15.1511 24L24.6667 14.4844L31.7156 21.5332L35.9578 17.291L24.6667 6ZM55.9089 6C55.1413 6 54.3728 6.29241 53.7878 6.87891L48.6667 12L60.6667 24L65.7878 18.8789C66.9608 17.7059 66.9608 15.8067 65.7878 14.6367L58.03 6.87891C57.4435 6.29241 56.6766 6 55.9089 6ZM44.1667 16.5L9.66675 51V63H21.6667L56.1667 28.5L44.1667 16.5ZM55.3757 36.709L51.1335 40.9512L58.1824 48L48.6667 57.5156L41.6238 50.4668L37.3757 54.709L48.6667 66L66.6667 48L55.3757 36.709Z" fill="#012840"/>
</g>
</svg>
