<svg width="72" height="72" viewBox="0 0 72 72" fill="none" xmlns="http://www.w3.org/2000/svg">
<g id="icons8_web_1 1">
<path id="Vector" d="M42 39H51V51H42V39ZM21 39H36V51H21V39Z" fill="#012840"/>
<path id="Vector_2" d="M57 63H15C11.7 63 9 60.3 9 57V15C9 11.7 11.7 9 15 9H57C60.3 9 63 11.7 63 15V57C63 60.3 60.3 63 57 63ZM15 15V57H57V15H15Z" fill="#012840"/>
<path id="Vector_3" d="M12 27H60V33H12V27ZM21 18C20.2044 18 19.4413 18.3161 18.8787 18.8787C18.3161 19.4413 18 20.2044 18 21C18 21.7956 18.3161 22.5587 18.8787 23.1213C19.4413 23.6839 20.2044 24 21 24C21.7956 24 22.5587 23.6839 23.1213 23.1213C23.6839 22.5587 24 21.7956 24 21C24 20.2044 23.6839 19.4413 23.1213 18.8787C22.5587 18.3161 21.7956 18 21 18ZM30 18C29.2044 18 28.4413 18.3161 27.8787 18.8787C27.3161 19.4413 27 20.2044 27 21C27 21.7956 27.3161 22.5587 27.8787 23.1213C28.4413 23.6839 29.2044 24 30 24C30.7956 24 31.5587 23.6839 32.1213 23.1213C32.6839 22.5587 33 21.7956 33 21C33 20.2044 32.6839 19.4413 32.1213 18.8787C31.5587 18.3161 30.7956 18 30 18ZM39 18H51V24H39V18Z" fill="#012840"/>
</g>
</svg>
