<svg width="73" height="72" viewBox="0 0 73 72" fill="none" xmlns="http://www.w3.org/2000/svg">
<g id="icons8_mobile 1">
<path id="Vector" d="M16.0833 7.5C12.3618 7.5 9.33325 10.5285 9.33325 14.25V45.75C9.33325 49.4715 12.3618 52.5 16.0833 52.5H30.3333V26.25C30.3333 21.1275 34.3068 16.9236 39.3333 16.5381V14.25C39.3333 10.5285 36.3048 7.5 32.5833 7.5H16.0833ZM40.0833 19.5C36.3618 19.5 33.3333 22.5285 33.3333 26.25V57.75C33.3333 61.4715 36.3618 64.5 40.0833 64.5H56.5833C60.3048 64.5 63.3333 61.4715 63.3333 57.75V26.25C63.3333 22.5285 60.3048 19.5 56.5833 19.5H40.0833ZM22.0833 40.5H26.5833C27.8253 40.5 28.8333 41.5065 28.8333 42.75C28.8333 43.9935 27.8253 45 26.5833 45H22.0833C20.8413 45 19.8333 43.9935 19.8333 42.75C19.8333 41.5065 20.8413 40.5 22.0833 40.5ZM46.0833 52.5H50.5833C51.8253 52.5 52.8333 53.5065 52.8333 54.75C52.8333 55.9935 51.8253 57 50.5833 57H46.0833C44.8413 57 43.8333 55.9935 43.8333 54.75C43.8333 53.5065 44.8413 52.5 46.0833 52.5Z" fill="#012840"/>
</g>
</svg>
