<svg width="97" height="40" viewBox="0 0 97 40" fill="none" xmlns="http://www.w3.org/2000/svg">
<g id="logo" clip-path="url(#clip0_2194_1264)">
<path id="Vector" d="M30.2109 19.8C28.4257 19.2596 28.0959 18.9775 28.0735 18.5551C28.0496 18.2491 28.3556 17.6625 29.5527 17.7565C30.0945 17.7998 30.4438 18.0267 30.6602 18.2805C30.8811 18.5432 31.2334 18.6521 31.5633 18.5581L32.3126 18.3447C32.9261 18.17 33.1753 17.4356 32.7947 16.9222C32.1708 16.0773 30.9811 15.2638 29.1303 15.2638C26.1942 15.2638 24.9255 16.9087 24.8553 18.482C24.7852 20.3373 25.8658 21.1837 28.3317 22.0524C29.9064 22.5927 30.4468 22.6629 30.4692 23.2973C30.4931 23.9078 29.5527 24.1197 28.7078 24.0734C28.1362 24.0391 27.4675 23.7883 27.048 23.4331C26.7614 23.1898 26.3584 23.145 26.0285 23.3226L25.2165 23.7585C24.7061 24.0316 24.5702 24.7108 24.9494 25.1496C25.7957 26.1273 27.4406 26.8931 29.2497 26.8931C31.8573 26.8931 33.6903 25.5064 33.7605 23.4629C33.8306 21.7479 32.8679 20.6194 30.2124 19.7985" fill="#3E474E"/>
<path id="Vector_2" d="M36.7193 10.3336C35.7327 10.3336 34.958 11.1083 34.958 12.0949C34.958 13.0816 35.7327 13.8324 36.7193 13.8324C37.706 13.8324 38.4583 13.0577 38.4583 12.0949C38.4583 11.1322 37.6836 10.3336 36.7193 10.3336Z" fill="#3E474E"/>
<path id="Vector_3" d="M36.3028 26.7303H37.1103C37.7507 26.7303 38.2686 26.2124 38.2686 25.572V16.5654C38.2686 15.9251 37.7507 15.4071 37.1103 15.4071H36.3028C35.6625 15.4071 35.1445 15.9251 35.1445 16.5654V25.572C35.1445 26.2124 35.6625 26.7303 36.3028 26.7303Z" fill="#3E474E"/>
<path id="Vector_4" d="M11.9486 21.1688C11.9322 21.0299 11.9098 20.8941 11.8799 20.7643C11.8755 20.7449 11.8695 20.7269 11.865 20.706C11.8367 20.5881 11.8023 20.4732 11.765 20.3612C11.7561 20.3374 11.7486 20.312 11.7396 20.2881C11.6949 20.1672 11.6441 20.0493 11.5889 19.9358C11.5769 19.912 11.5635 19.8881 11.5516 19.8642C11.4978 19.7612 11.4396 19.6597 11.3769 19.5627C11.368 19.5492 11.3605 19.5343 11.3516 19.5224C11.2814 19.4164 11.2038 19.3164 11.1232 19.2179C11.1053 19.1955 11.0859 19.1731 11.0665 19.1507C10.9829 19.0537 10.8948 18.9596 10.7993 18.8701C10.7963 18.8671 10.7918 18.8626 10.7873 18.8596C10.6948 18.7731 10.5963 18.691 10.4948 18.6119C10.2276 18.4044 9.93204 18.2193 9.60814 18.0626C10.0306 17.6849 10.3903 17.2297 10.65 16.7237C10.6664 16.6908 10.6828 16.658 10.6978 16.6251C10.7426 16.5311 10.7843 16.4356 10.8232 16.3386C10.8336 16.3117 10.8455 16.2848 10.856 16.2565C10.9008 16.1356 10.9381 16.0117 10.9709 15.8863C10.9784 15.8579 10.9829 15.8296 10.9903 15.8012C11.0142 15.6997 11.0336 15.5967 11.0471 15.4922C11.053 15.4549 11.0575 15.4191 11.062 15.3833C11.0769 15.2519 11.0874 15.1191 11.0874 14.9847C11.0874 12.4248 9.20811 10.2874 6.06011 10.2874H1.12542C0.6209 10.2874 0.211914 10.6963 0.211914 11.2009V25.8184C0.211914 26.3229 0.6209 26.7319 1.12542 26.7319H6.48402C10.1022 26.7319 11.9815 24.5705 11.9815 21.7046C11.9815 21.5539 11.9725 21.4076 11.9576 21.2658C11.9546 21.2344 11.9516 21.2016 11.9486 21.1703M3.33603 15.7624V13.2935H6.13176C7.35275 13.2935 7.89309 14.0682 7.89309 14.9847C7.89309 15.9012 7.35275 16.6759 6.13176 16.6759H3.33603V15.7624ZM6.48402 23.7466H3.33603V19.6582H6.48402C7.94085 19.6582 8.71554 20.5269 8.71554 21.7016C8.71554 22.8764 7.94085 23.7451 6.48402 23.7451" fill="#3E474E"/>
<path id="Vector_5" d="M59.6253 26.5423C59.6447 26.5348 59.6656 26.5273 59.685 26.5214L59.7313 26.502C59.8866 26.4438 60.0403 26.3766 60.1911 26.3064C60.4448 26.1796 60.7 26.0243 60.8896 25.8094C60.9717 25.7168 61.0269 25.6049 61.0702 25.49C61.1105 25.381 61.1359 25.2675 61.1463 25.1511C61.1672 24.9198 61.1284 24.6854 61.0434 24.4705C60.9568 24.2555 60.8239 24.0585 60.6508 23.9033C60.4761 23.7465 60.2612 23.6361 60.0313 23.5928C59.9373 23.5749 59.8433 23.5689 59.7492 23.5719C59.6552 23.5749 59.5388 23.5794 59.4507 23.6152L58.7969 23.8734C58.6894 23.9167 58.5805 23.9525 58.47 23.9854C58.1655 24.1033 57.8252 24.169 57.4506 24.169C57.2699 24.169 57.0968 24.1525 56.9326 24.1242C56.8774 24.1182 56.8221 24.1122 56.7669 24.1048L56.7744 24.0943C55.8534 23.8779 55.2235 23.2137 54.9369 22.3136H62.4778C62.5479 21.9613 62.5718 21.5852 62.5718 21.1866C62.5718 17.9207 60.5747 15.3608 57.3326 15.3608C54.0906 15.3608 51.7173 17.9222 51.7173 21.1866C51.7173 23.5615 53.0234 25.5735 54.9907 26.496C56.5729 27.0751 58.1805 27.0602 59.6268 26.5453M57.3311 18.2014C58.6462 18.2014 59.3522 18.9999 59.6104 20.1269H54.9116C55.1937 18.9999 56.0161 18.2014 57.3311 18.2014Z" fill="#3E474E"/>
<path id="Vector_6" d="M46.2093 15.2429L45.8003 15.2683C45.7854 15.2698 45.7719 15.2713 45.757 15.2743C45.6659 15.2862 45.5764 15.3012 45.4883 15.3191C45.4719 15.322 45.457 15.325 45.4406 15.3295C45.3525 15.3489 45.2674 15.3713 45.1823 15.3967C45.1674 15.4012 45.1525 15.4056 45.1375 15.4101C45.051 15.4385 44.9674 15.4683 44.8838 15.5012C44.8719 15.5056 44.8599 15.5101 44.848 15.5146C44.7584 15.5519 44.6718 15.5922 44.5853 15.637C44.5808 15.64 44.5763 15.6415 44.5718 15.643C44.2031 15.8355 43.8718 16.0893 43.5777 16.3938V15.7146C43.5777 15.5445 43.4404 15.4071 43.2702 15.4071H40.7611C40.5909 15.4071 40.4536 15.5445 40.4536 15.7146V25.4855C40.4536 25.4959 40.4536 25.5049 40.4536 25.5139C40.467 25.6586 40.6133 26.7289 41.9149 26.7289H42.2955C43.6524 26.7289 43.5777 25.4258 43.5777 25.4258V20.5732C43.5777 18.9059 44.33 18.1536 45.457 18.1536C46.5839 18.1536 47.2661 18.8119 47.2661 20.4553V25.6228C47.2661 25.6482 47.269 25.6721 47.275 25.696C47.3616 26.0452 47.6646 26.7259 48.7035 26.7259H49.0647C49.0781 26.7259 49.0901 26.7259 49.1035 26.7229C49.2692 26.7005 50.3917 26.5095 50.3917 25.4333V20.5702C50.3917 17.0938 48.7945 15.237 46.2108 15.237" fill="#3E474E"/>
<path id="Vector_7" d="M45.9617 15.2534C45.9124 15.2564 45.8647 15.2609 45.8169 15.2668C45.8647 15.2609 45.9124 15.2579 45.9617 15.2534Z" fill="#3E474E"/>
<path id="Vector_8" d="M17.4881 26.9916L17.8971 26.9662C17.912 26.9647 17.9269 26.9632 17.9403 26.9602C18.0314 26.9483 18.1209 26.9349 18.209 26.9155C18.2254 26.9125 18.2404 26.9095 18.2568 26.905C18.3448 26.8856 18.4299 26.8632 18.515 26.8378C18.5299 26.8334 18.5449 26.8289 18.5598 26.8244C18.6464 26.796 18.73 26.7662 18.8135 26.7334C18.8255 26.7289 18.8374 26.7244 18.8494 26.7199C18.9389 26.6826 19.0255 26.6423 19.1121 26.5975C19.1165 26.5945 19.121 26.593 19.1255 26.5915C19.4942 26.399 19.8256 26.1452 20.1196 25.8407V26.5199C20.1196 26.6901 20.2569 26.8274 20.4271 26.8274H22.9362C23.1064 26.8274 23.2437 26.6901 23.2437 26.5199V16.749C23.2437 16.7386 23.2437 16.7296 23.2437 16.7207C23.2303 16.5759 23.084 15.5056 21.7824 15.5056H21.4018C20.045 15.5056 20.1196 16.8087 20.1196 16.8087V21.6613C20.1196 23.3286 19.3673 24.0809 18.2404 24.0809C17.1134 24.0809 16.4313 23.4227 16.4313 21.7793V16.6117C16.4313 16.5863 16.4283 16.5624 16.4238 16.5386C16.3372 16.1893 16.0342 15.5086 14.9953 15.5086H14.6341C14.6207 15.5086 14.6087 15.5086 14.5938 15.5116C14.4281 15.534 13.3057 15.7251 13.3057 16.8013V21.6643C13.3057 25.1407 14.9028 26.9975 17.4866 26.9975" fill="#3E474E"/>
<path id="Vector_9" d="M17.7358 26.9811C17.7851 26.9781 17.8329 26.9737 17.8806 26.9677C17.8329 26.9737 17.7836 26.9766 17.7358 26.9811Z" fill="#3E474E"/>
<path id="Vector_10" d="M68.9932 19.6895C67.208 19.1492 66.8781 18.8671 66.8557 18.4447C66.8318 18.1387 67.1378 17.5521 68.3364 17.6461C68.8768 17.6894 69.2275 17.9163 69.4425 18.1715C69.6634 18.4342 70.0157 18.5432 70.3455 18.4492L71.0948 18.2357C71.7083 18.0611 71.9576 17.3267 71.577 16.8132C70.9515 15.9684 69.7619 15.1549 67.9125 15.1549C64.9765 15.1549 63.7077 16.7998 63.6376 18.373C63.5674 20.2284 64.6481 21.0747 67.1139 21.9434C68.6887 22.4838 69.229 22.5539 69.2514 23.1883C69.2753 23.7988 68.3349 24.0108 67.4901 23.9645C66.9169 23.9302 66.2497 23.6794 65.8288 23.3241C65.5422 23.0823 65.1392 23.0361 64.8093 23.2137L63.9973 23.6495C63.4868 23.9227 63.351 24.6018 63.7301 25.0407C64.5764 26.0184 66.2213 26.7841 68.0304 26.7841C70.6381 26.7841 72.4711 25.3974 72.5412 23.354C72.6114 21.6389 71.6486 20.5105 68.9932 19.6895Z" fill="#3E474E"/>
<path id="Vector_11" d="M79.1729 19.6895C77.3877 19.1492 77.0578 18.8671 77.0354 18.4447C77.0115 18.1387 77.3175 17.5521 78.5146 17.6461C79.0565 17.6894 79.4057 17.9163 79.6222 18.1715C79.8431 18.4342 80.1953 18.5432 80.5252 18.4492L81.2745 18.2357C81.888 18.0611 82.1373 17.3267 81.7567 16.8132C81.1327 15.9684 79.9431 15.1549 78.0922 15.1549C75.1562 15.1549 73.8874 16.7998 73.8173 18.373C73.7471 20.2284 74.8278 21.0747 77.2936 21.9434C78.8684 22.4838 79.4087 22.5539 79.4311 23.1883C79.455 23.7988 78.5146 24.0108 77.6698 23.9645C77.0966 23.9302 76.4294 23.6794 76.0085 23.3241C75.7219 23.0823 75.3189 23.0361 74.989 23.2137L74.177 23.6495C73.6665 23.9227 73.5307 24.6018 73.9098 25.0407C74.7561 26.0184 76.401 26.7841 78.2101 26.7841C80.8178 26.7841 82.6508 25.3974 82.7209 23.354C82.7911 21.6389 81.8283 20.5105 79.1729 19.6895Z" fill="#3E474E"/>
<path id="Vector_12" d="M64.5602 33.0472C62.6152 33.0472 61.1465 34.5727 61.1465 36.5176C61.1465 38.4626 62.6152 40.0015 64.5602 40.0015C66.5051 40.0015 67.9739 38.4626 67.9739 36.5176C67.9739 34.5727 66.5051 33.0472 64.5602 33.0472ZM64.5602 38.2939C63.5526 38.2939 62.966 37.5237 62.966 36.5176C62.966 35.5116 63.5541 34.7399 64.5602 34.7399C65.5662 34.7399 66.1558 35.5086 66.1558 36.5176C66.1558 37.5267 65.5677 38.2939 64.5602 38.2939Z" fill="#357DC0"/>
<path id="Vector_13" d="M80.9524 39.7075C80.9644 39.703 80.9763 39.6985 80.9883 39.6955L81.0151 39.6836C81.1077 39.6493 81.1987 39.6089 81.2883 39.5672C81.439 39.4925 81.5913 39.3985 81.7047 39.2701C81.754 39.2149 81.7868 39.1477 81.8122 39.0791C81.8361 39.0149 81.851 38.9462 81.857 38.8776C81.8689 38.7402 81.8465 38.5999 81.7958 38.4716C81.745 38.3432 81.6644 38.2253 81.5614 38.1342C81.457 38.0402 81.3301 37.9745 81.1928 37.9491C81.1375 37.9387 81.0808 37.9342 81.0241 37.9372C80.9674 37.9387 80.8987 37.9417 80.8465 37.9626L80.4569 38.1163C80.3927 38.1417 80.3285 38.1626 80.2628 38.182C80.0807 38.2521 79.8792 38.2909 79.6553 38.2909C79.5479 38.2909 79.4449 38.2805 79.3478 38.2641C79.315 38.2611 79.2822 38.2581 79.2493 38.2521L79.2538 38.2462C78.7045 38.1178 78.3299 37.7208 78.1597 37.1864H82.6511C82.6929 36.9759 82.7078 36.752 82.7078 36.5147C82.7078 34.5698 81.5182 33.0443 79.5882 33.0443C77.6582 33.0443 76.2446 34.5698 76.2446 36.5147C76.2446 37.9282 77.0223 39.1268 78.194 39.6761C79.1374 40.0209 80.0942 40.012 80.9554 39.7045M79.5867 34.7399C80.3703 34.7399 80.7897 35.2161 80.9435 35.8863H78.1463C78.3134 35.2146 78.803 34.7399 79.5867 34.7399Z" fill="#357DC0"/>
<path id="Vector_14" d="M58.9833 36.8445L58.6698 37.1968C58.1743 37.7565 57.4653 38.0909 56.5742 38.0909C54.783 38.0909 53.7232 36.7251 53.7396 34.913C53.759 33.1487 54.8143 31.8277 56.5742 31.8277C57.4653 31.8277 58.1728 32.1636 58.6698 32.7233L58.9833 33.0756C59.6296 33.6353 60.555 33.0413 60.5252 32.3158H60.5297C60.5237 32.2113 60.4759 32.0009 60.2416 31.6874C60.1729 31.5994 60.1013 31.5143 60.0252 31.4322L60.0043 31.4068C59.9938 31.3964 59.9849 31.3859 59.9744 31.3755H59.9729C59.1385 30.4978 57.9608 29.9694 56.5756 29.9694C53.8068 29.9694 51.8947 32.0875 51.8365 34.8369H51.8335C51.8335 34.8369 51.8335 34.8459 51.8335 34.8504C51.8335 34.8936 51.8335 34.9369 51.8335 34.9802V34.9922C51.8484 37.7879 53.7739 39.9537 56.5742 39.9537C57.9593 39.9537 59.137 39.4238 59.9714 38.5462H59.9729C59.9834 38.5372 59.9923 38.5267 60.0028 38.5163L60.0237 38.4909C60.0998 38.4088 60.1699 38.3223 60.2401 38.2342C60.4744 37.9207 60.5222 37.7103 60.5282 37.6073H60.5237C60.5536 36.8789 59.6281 36.2848 58.9818 36.8445" fill="#357DC0"/>
<path id="Vector_15" d="M74.4804 30.0948C73.7162 30.0948 73.5654 30.4844 73.5415 30.7053V33.7324C73.0654 33.3129 72.4638 33.0472 71.7369 33.0472C69.792 33.0472 68.5337 34.5727 68.5337 36.5177C68.5337 38.4626 69.792 40.0015 71.7369 40.0015C72.4653 40.0015 73.0654 39.7358 73.5415 39.3164C73.5415 39.3164 73.543 39.3238 73.549 39.3373C73.5863 39.4373 73.7923 39.8791 74.47 39.8791C75.2357 39.8791 75.4163 39.2955 75.4029 39.088V30.5739C75.3969 30.5157 75.3282 30.0978 74.4804 30.0978M71.9474 38.2939C70.9398 38.2939 70.3517 37.5237 70.3517 36.5177C70.3517 35.5116 70.9398 34.7399 71.9474 34.7399C72.9549 34.7399 73.543 35.5086 73.543 36.5177C73.543 37.5267 72.9549 38.2939 71.9474 38.2939Z" fill="#357DC0"/>
<path id="Vector_16" d="M80.4805 7.62894L85.4749 2.63454C85.9272 2.18226 85.9272 1.44788 85.4749 0.997101L84.9032 0.425417C84.4509 -0.026856 83.718 -0.026856 83.2658 0.425417L76.8802 6.80948C76.4279 7.26175 76.4279 7.99464 76.8802 8.44691L83.2494 14.816C83.7016 15.2683 84.4345 15.2683 84.8868 14.816L85.4585 14.2444C85.9107 13.7921 85.9107 13.0592 85.4585 12.6069L80.4805 7.62894Z" fill="#357DC0"/>
<path id="Vector_17" d="M94.6935 14.3638L88.3244 7.99463C87.8721 7.54236 87.1392 7.54236 86.6869 7.99463L86.1152 8.56631C85.663 9.01859 85.663 9.75148 86.1152 10.2038L91.0917 15.1817L86.1063 20.1672C85.654 20.6195 85.654 21.3523 86.1063 21.8046L86.678 22.3763C87.1303 22.8286 87.8631 22.8286 88.3154 22.3763L94.6935 16.0012C95.1458 15.5489 95.1458 14.816 94.6935 14.3638Z" fill="#85BE41"/>
<path id="Vector_18" d="M78.5865 0.0656738H74.7593H74.628H74.4951V4.02567H75.0235V0.594072H78.5865V0.0656738Z" fill="#85BE41"/>
<path id="Vector_19" d="M96.9995 4.09135V0.264199V0.131353V0H93.0396V0.528398H96.4711V4.09135H96.9995Z" fill="#85BE41"/>
<path id="Vector_20" d="M92.9082 22.7689H96.7353H96.8682H96.9995V18.8089H96.4712V22.2405H92.9082V22.7689Z" fill="#85BE41"/>
</g>
<defs>
<clipPath id="clip0_2194_1264">
<rect width="96.7878" height="40" fill="white" transform="translate(0.211914)"/>
</clipPath>
</defs>
</svg>
