<svg width="48" height="49" viewBox="0 0 48 49" fill="none" xmlns="http://www.w3.org/2000/svg">
<g id="Button - Previous testimonial">
<path d="M0 24.5C0 11.2452 10.7452 0.5 24 0.5C37.2548 0.5 48 11.2452 48 24.5C48 37.7548 37.2548 48.5 24 48.5C10.7452 48.5 0 37.7548 0 24.5Z" fill="#202026" fill-opacity="0.32"/>
<path id="Union" fill-rule="evenodd" clip-rule="evenodd" d="M30.1898 21.6885L17.1104 14.5C17.1104 18.0427 19.0397 21.304 22.1431 23.0067L24.9034 24.5247L24.6217 24.682L22.102 26.0688C19.0212 27.7636 17.113 30.9942 17.1105 34.5L30.1625 27.4351L30.1774 27.4252L30.183 27.4282C30.6842 27.1536 31 26.6249 31 26.0551V23.0547C31 22.4849 30.691 21.9631 30.1898 21.6885Z" fill="white"/>
</g>
</svg>
