<svg width="48" height="49" viewBox="0 0 48 49" fill="none" xmlns="http://www.w3.org/2000/svg">
<g id="Button - Next testimonial">
<path d="M0 24.5C0 11.2452 10.7452 0.5 24 0.5C37.2548 0.5 48 11.2452 48 24.5C48 37.7548 37.2548 48.5 24 48.5C10.7452 48.5 0 37.7548 0 24.5Z" fill="#049DD9"/>
<path id="Union" fill-rule="evenodd" clip-rule="evenodd" d="M17.8102 21.6885L30.8896 14.5C30.8896 18.0427 28.9603 21.304 25.8569 23.0067L23.0966 24.5247L23.3783 24.682L25.898 26.0688C28.9788 27.7636 30.887 30.9942 30.8895 34.5L17.8375 27.4351L17.8226 27.4252L17.817 27.4282C17.3158 27.1536 17 26.6249 17 26.0551V23.0547C17 22.4849 17.309 21.9631 17.8102 21.6885Z" fill="white"/>
</g>
</svg>
