<svg width="82" height="64" viewBox="0 0 82 64" fill="none" xmlns="http://www.w3.org/2000/svg">
<path id="&#226;&#128;&#156;" d="M20.7247 27.9349C25.5604 27.9349 29.429 29.5331 32.3305 32.7296C35.3701 35.7872 36.8899 39.8176 36.8899 44.8208C36.8899 50.38 35.0938 54.9663 31.5015 58.5798C28.0474 62.1933 23.6952 64 18.445 64C12.9184 64 8.42803 62.1238 4.97392 58.3713C1.65797 54.4799 0 49.4072 0 43.1531V6.87948L18.8594 0V27.9349H20.7247ZM65.4899 27.9349C70.3257 27.9349 74.1943 29.5331 77.0957 32.7296C80.1354 35.7872 81.6552 39.8176 81.6552 44.8208C81.6552 50.38 79.859 54.9663 76.2668 58.5798C72.8127 62.1933 68.4605 64 63.2102 64C57.6836 64 53.1933 62.1238 49.7392 58.3713C46.4232 54.4799 44.7653 49.4072 44.7653 43.1531V6.87948L63.6247 0V27.9349H65.4899Z" fill="#012840"/>
</svg>
