<svg width="82" height="64" viewBox="0 0 82 64" fill="none" xmlns="http://www.w3.org/2000/svg">
<path id="&#226;&#128;&#156;" d="M60.9306 36.0651C56.0949 36.0651 52.2263 34.4669 49.3248 31.2704C46.2852 28.2128 44.7654 24.1824 44.7654 19.1792C44.7654 13.62 46.5615 9.03366 50.1538 5.42019C53.6079 1.80673 57.9601 0 63.2103 0C68.7369 0 73.2272 1.87622 76.6814 5.62867C79.9973 9.52009 81.6553 14.5928 81.6553 20.8469V57.1205L62.7958 64V36.0651H60.9306ZM16.1653 36.0651C11.3296 36.0651 7.46098 34.4669 4.55952 31.2704C1.51991 28.2128 9.91821e-05 24.1824 9.91821e-05 19.1792C9.91821e-05 13.62 1.79624 9.03366 5.38851 5.42019C8.84262 1.80673 13.1948 0 18.445 0C23.9716 0 28.462 1.87622 31.9161 5.62867C35.232 9.52009 36.89 14.5928 36.89 20.8469V57.1205L18.0306 64V36.0651H16.1653Z" fill="#012840"/>
</svg>
